<svg width="1200" height="900" viewBox="0 0 1200 900" fill="none" xmlns="http://www.w3.org/2000/svg">
  <rect width="1200" height="900" fill="#E9EEF4"/>
  <rect width="1200" height="900" fill="url(#paint0_linear_1_2)"/>
  <circle cx="925" cy="180" r="98" fill="#F0D8A7" fill-opacity="0.72"/>
  <rect x="123" y="226" width="954" height="514" rx="32" fill="#233B5A"/>
  <rect x="162" y="264" width="876" height="438" rx="24" fill="#F8FAFC"/>
  <rect x="216" y="324" width="196" height="142" rx="16" fill="#D7E0EA"/>
  <rect x="448" y="324" width="196" height="142" rx="16" fill="#D7E0EA"/>
  <rect x="680" y="324" width="196" height="142" rx="16" fill="#D7E0EA"/>
  <rect x="216" y="498" width="196" height="142" rx="16" fill="#D7E0EA"/>
  <rect x="448" y="498" width="196" height="142" rx="16" fill="#D7E0EA"/>
  <rect x="680" y="498" width="196" height="142" rx="16" fill="#D7E0EA"/>
  <path d="M123 740H1077" stroke="#D3A45C" stroke-width="18" stroke-linecap="round"/>
  <text x="128" y="116" fill="#1B3150" font-family="Arial, sans-serif" font-size="52" font-weight="700">Musgrave Study Suites</text>
  <text x="129" y="168" fill="#35516F" font-family="Arial, sans-serif" font-size="28">Quiet academic block with secure arrival and study-led living.</text>
  <defs>
    <linearGradient id="paint0_linear_1_2" x1="120" y1="90" x2="1016" y2="820" gradientUnits="userSpaceOnUse">
      <stop stop-color="#F9FBFD"/>
      <stop offset="1" stop-color="#DCE5EF"/>
    </linearGradient>
  </defs>
</svg>